HIERARCHY
ROOT Hips
{
	OFFSET 54.248402 -16.105314 85.692497
	CHANNELS 6 Xposition Yposition Zposition Xrotation Yrotation Zrotation
	JOINT spine
	{
		OFFSET 0.000000 -0.367607 6.392601
		CHANNELS 3 Xrotation Yrotation Zrotation
		JOINT spine1
		{
			OFFSET 0.000000 -0.000002 9.176109
			CHANNELS 3 Xrotation Yrotation Zrotation
			JOINT spine2
			{
				OFFSET 0.000000 0.000000 8.792381
				CHANNELS 3 Xrotation Yrotation Zrotation
				JOINT Neck
				{
					OFFSET 0.000000 -1.076244 22.573700
					CHANNELS 3 Xrotation Yrotation Zrotation
					JOINT Head
					{
						OFFSET 0.000000 -0.000002 6.820114
						CHANNELS 3 Xrotation Yrotation Zrotation
						End Site
						{
							OFFSET 0.000000 5.444267 16.508499
						}
					}
				}
				JOINT RightShoulder
				{
					OFFSET -3.702209 0.515506 9.495087
					CHANNELS 3 Xrotation Yrotation Zrotation
					JOINT RightArm
					{
						OFFSET 0.000000 -0.000003 12.453705
						CHANNELS 3 Xrotation Yrotation Zrotation
						JOINT RightArmRoll
						{
							OFFSET 0.000000 -0.000001 6.286865
							CHANNELS 3 Xrotation Yrotation Zrotation
							JOINT RightForeArm
							{
								OFFSET 0.000000 -0.000003 18.311401
								CHANNELS 3 Xrotation Yrotation Zrotation
								JOINT RightForeArmRoll
								{
									OFFSET 0.000000 -0.000001 7.054825
									CHANNELS 3 Xrotation Yrotation Zrotation
									JOINT RightHand
									{
										OFFSET 0.000000 -0.000002 14.157501
										CHANNELS 3 Xrotation Yrotation Zrotation
										End Site
										{
											OFFSET 0.000000 0.000000 0.100006
										}
									}
								}
							}
						}
					}
				}
				JOINT LeftShoulder
				{
					OFFSET 3.702209 0.515506 9.495087
					CHANNELS 3 Xrotation Yrotation Zrotation
					JOINT LeftArm
					{
						OFFSET 0.000000 -0.000003 12.453705
						CHANNELS 3 Xrotation Yrotation Zrotation
						JOINT LeftArmRoll
						{
							OFFSET 0.000000 -0.000001 6.286865
							CHANNELS 3 Xrotation Yrotation Zrotation
							JOINT LeftForeArm
							{
								OFFSET 0.000000 -0.000003 18.311401
								CHANNELS 3 Xrotation Yrotation Zrotation
								JOINT LeftForeArmRoll
								{
									OFFSET 0.000000 -0.000001 7.054825
									CHANNELS 3 Xrotation Yrotation Zrotation
									JOINT LeftHand
									{
										OFFSET 0.000000 -0.000002 14.157501
										CHANNELS 3 Xrotation Yrotation Zrotation
										End Site
										{
											OFFSET 0.000000 0.000000 0.100006
										}
									}
								}
							}
						}
					}
				}
			}
		}
	}
	JOINT RightUpLeg
	{
		OFFSET -5.666161 0.871610 -1.039032
		CHANNELS 3 Xrotation Yrotation Zrotation
		JOINT RightUpLegRoll
		{
			OFFSET 0.000000 -0.000003 16.600502
			CHANNELS 3 Xrotation Yrotation Zrotation
			JOINT RightLeg
			{
				OFFSET 0.000000 0.000003 -20.557198
				CHANNELS 3 Xrotation Yrotation Zrotation
				JOINT RightLegRoll
				{
					OFFSET 0.000000 -0.000003 20.624397
					CHANNELS 3 Xrotation Yrotation Zrotation
					JOINT RightFoot
					{
						OFFSET 0.000000 -0.000003 17.166397
						CHANNELS 3 Xrotation Yrotation Zrotation
						JOINT RightToeBase
						{
							OFFSET 0.000000 -0.000003 14.350204
							CHANNELS 3 Xrotation Yrotation Zrotation
							End Site
							{
								OFFSET 0.006081 0.801060 6.949707
							}
						}
					}
				}
			}
		}
	}
	JOINT LeftUpLeg
	{
		OFFSET 5.666161 0.871610 -1.039032
		CHANNELS 3 Xrotation Yrotation Zrotation
		JOINT LeftUpLegRoll
		{
			OFFSET 0.000000 -0.000003 16.600601
			CHANNELS 3 Xrotation Yrotation Zrotation
			JOINT LeftLeg
			{
				OFFSET 0.000000 -0.000004 20.557098
				CHANNELS 3 Xrotation Yrotation Zrotation
				JOINT LeftLegRoll
				{
					OFFSET 0.000000 -0.000003 20.815102
					CHANNELS 3 Xrotation Yrotation Zrotation
					JOINT LeftFoot
					{
						OFFSET 0.000000 -0.000003 16.975693
						CHANNELS 3 Xrotation Yrotation Zrotation
						JOINT LeftToeBase
						{
							OFFSET 0.000000 -0.000003 14.350204
							CHANNELS 3 Xrotation Yrotation Zrotation
							End Site
							{
								OFFSET -0.027260 0.801059 6.949707
							}
						}
					}
				}
			}
		}
	}
}
MOTION
Frames: 13
Frame Time: 0.041667
54.141399 -16.044111 85.688896 -3.486051 2.085989 -4.037972 -0.997185 0.061909 -0.142081 2.008604 0.108612 -0.266400 3.653667 0.105434 -0.267767 7.197240 -3.545694 -0.704425 4.169066 1.149820 -0.323008 -1.709095 -63.464308 -2.500611 -46.355548 -114.407526 -39.894524 0.000001 0.000011 -0.000006 5.628579 -14.078625 0.305055 -0.000003 0.000004 -3.006550 -5.000211 -7.998744 0.000160 -2.531290 54.633211 2.489307 -36.893704 117.312761 33.478534 0.000000 0.000001 0.000003 3.527056 9.771796 0.249108 -0.000001 -0.000011 3.000000 -5.000225 7.998802 -0.000158 2.722691 -176.007500 1.101180 -179.999991 0.000005 -1.147002 174.617488 -3.310371 -0.529729 0.000003 -0.000000 0.050072 68.706710 6.909062 2.112341 25.456960 -7.355613 -0.000001 2.321954 172.919763 -1.032210 -0.000005 -0.000005 -1.076870 -8.070019 0.885530 0.666574 0.000002 0.000001 -0.089586 70.943351 -6.391122 -3.346939 25.458065 7.355620 -0.001666 
54.135094 -16.038811 85.689789 -3.486340 2.083922 -4.035347 -0.997528 0.061924 -0.141279 2.007914 0.109068 -0.265590 3.652977 0.105897 -0.266957 7.205039 -3.546317 -0.706265 4.166708 1.149484 -0.324952 -1.717134 -63.462313 -2.509614 -46.349831 -114.411870 -39.895429 -0.000001 0.000010 -0.000006 5.639524 -14.080464 0.306507 -0.000002 0.000004 -3.006550 -5.000213 -7.998743 0.000160 -2.508603 54.636476 2.462236 -36.886406 117.313990 33.480775 -0.000000 0.000000 0.000003 3.549016 9.777440 0.247012 -0.000001 -0.000011 3.000001 -5.000222 7.998802 -0.000157 2.723262 -176.004508 1.104406 -179.999991 0.000005 -1.147003 174.618540 -3.312362 -0.529854 0.000003 -0.000000 0.050072 68.706717 6.909063 2.112341 25.456959 -7.355614 0.000001 2.321132 172.922754 -1.029844 -0.000005 -0.000005 -1.076870 -8.071109 0.884978 0.666576 0.000002 0.000001 -0.089586 70.944260 -6.391302 -3.347017 25.458065 7.355619 -0.001666 
54.137398 -16.043413 85.685898 -3.486563 2.081705 -4.032614 -0.997909 0.061945 -0.140453 2.007153 0.109530 -0.264701 3.652217 0.106370 -0.266065 7.213249 -3.546828 -0.708214 4.164200 1.149169 -0.327038 -1.725985 -63.460107 -2.519517 -46.342550 -114.416911 -39.894097 0.000001 0.000011 -0.000007 5.649716 -14.082117 0.307838 -0.000003 0.000004 -3.006550 -5.000213 -7.998744 0.000161 -2.484468 54.640175 2.433457 -36.879917 117.314318 33.483684 0.000001 0.000001 0.000003 3.571045 9.783019 0.244900 -0.000002 -0.000011 2.999999 -5.000224 7.998804 -0.000157 2.723777 -176.000506 1.107785 -179.999991 0.000005 -1.147002 174.619633 -3.315360 -0.529074 0.000003 -0.000000 0.050072 68.706813 6.909034 2.112429 25.456957 -7.355614 -0.000001 2.320135 172.926757 -1.027272 -0.000005 -0.000005 -1.076870 -8.072346 0.884400 0.666578 0.000002 0.000001 -0.089586 70.945182 -6.391545 -3.347005 25.458063 7.355621 -0.001666 
54.133698 -16.040409 85.686089 -3.486738 2.079379 -4.029780 -0.998318 0.061971 -0.139610 2.006334 0.109998 -0.263755 3.651396 0.106848 -0.265119 7.221760 -3.547257 -0.710236 4.161579 1.148864 -0.329220 -1.735394 -63.457587 -2.530038 -46.335436 -114.422020 -39.892580 -0.000001 0.000009 -0.000006 5.659388 -14.083482 0.309075 -0.000003 0.000005 -3.006550 -5.000210 -7.998744 0.000160 -2.459322 54.644088 2.403477 -36.871724 117.315275 33.484552 -0.000001 0.000001 0.000003 3.593137 9.788546 0.242776 -0.000002 -0.000011 3.000000 -5.000223 7.998803 -0.000156 2.724239 -175.997528 1.111191 -179.999991 0.000005 -1.147002 174.620808 -3.317352 -0.529195 0.000003 -0.000000 0.050072 68.706806 6.909034 2.112429 25.456962 -7.355614 -0.000001 2.319033 172.929735 -1.024627 -0.000005 -0.000004 -1.076870 -8.073675 0.883802 0.666581 0.000002 0.000001 -0.089586 70.946199 -6.391758 -3.346983 25.458068 7.355619 -0.001666 
54.133194 -16.042311 85.685799 -3.486892 2.077004 -4.026909 -0.998745 0.061999 -0.138759 2.005484 0.110469 -0.262777 3.650546 0.107328 -0.264140 7.230431 -3.547646 -0.712301 4.158886 1.148578 -0.331458 -1.745129 -63.454971 -2.540916 -46.328323 -114.427136 -39.890876 0.000001 0.000012 -0.000006 5.668753 -14.084759 0.310258 -0.000002 0.000004 -3.006550 -5.000210 -7.998743 0.000160 -2.433591 54.648111 2.372808 -36.864679 117.315438 33.486597 0.000001 0.000001 0.000003 3.615262 9.794041 0.240642 -0.000003 -0.000011 3.000000 -5.000225 7.998804 -0.000157 2.724661 -175.993525 1.114686 -179.999991 0.000005 -1.147002 174.621982 -3.319357 -0.529315 0.000003 -0.000000 0.050071 68.706813 6.909072 2.112335 25.456955 -7.355613 -0.000000 2.317842 172.933724 -1.021873 -0.000005 -0.000004 -1.076870 -8.075063 0.883195 0.666584 0.000002 0.000001 -0.089586 70.947313 -6.391942 -3.347049 25.458063 7.355620 -0.001666 
54.138992 -16.042011 85.686195 -3.487035 2.074608 -4.024019 -0.999174 0.062028 -0.137906 2.004623 0.110941 -0.261791 3.649686 0.107810 -0.263153 7.239151 -3.548015 -0.714386 4.156174 1.148293 -0.333711 -1.754944 -63.452355 -2.551883 -46.321059 -114.432163 -39.888978 0.000001 0.000010 -0.000007 5.678046 -14.085935 0.311433 -0.000005 0.000004 -3.006550 -5.000213 -7.998745 0.000160 -2.407722 54.652230 2.341971 -36.857634 117.315589 33.488609 -0.000002 0.000000 0.000003 3.637390 9.799536 0.238504 0.000000 -0.000010 3.000002 -5.000223 7.998803 -0.000158 2.725096 -175.989523 1.118193 -179.999991 0.000005 -1.147002 174.623171 -3.321350 -0.529430 0.000003 -0.000000 0.050071 68.706915 6.909043 2.112423 25.456953 -7.355616 0.000000 2.316644 172.937726 -1.019103 -0.000005 -0.000004 -1.076870 -8.076463 0.882583 0.666588 0.000002 0.000001 -0.089586 70.948351 -6.392187 -3.347031 25.458065 7.355619 -0.001666 
54.131001 -16.043711 85.684395 -3.487191 2.072241 -4.021157 -0.999596 0.062057 -0.137058 2.003784 0.111410 -0.260820 3.648836 0.108290 -0.262182 7.247778 -3.548413 -0.716443 4.153508 1.148008 -0.335935 -1.764590 -63.449725 -2.562664 -46.313969 -114.437272 -39.887349 0.000001 0.000012 -0.000007 5.687495 -14.087210 0.312636 -0.000002 0.000004 -3.006550 -5.000209 -7.998744 0.000160 -2.382129 54.656133 2.311463 -36.849437 117.316545 33.489398 0.000002 0.000002 0.000003 3.659508 9.805049 0.236363 -0.000001 -0.000011 2.999999 -5.000224 7.998803 -0.000157 2.725528 -175.985534 1.121680 -179.999991 0.000005 -1.147002 174.624346 -3.324348 -0.529644 0.000002 -0.000000 0.050071 68.706915 6.909044 2.112424 25.456953 -7.355613 -0.000000 2.315477 172.940704 -1.016407 -0.000005 -0.000005 -1.076870 -8.077834 0.881977 0.666590 0.000002 0.000002 -0.089586 70.949457 -6.392372 -3.347098 25.458067 7.355620 -0.001666 
54.129192 -16.037212 85.681793 -3.487378 2.069946 -4.018360 -0.999996 0.062081 -0.136219 2.002973 0.111877 -0.259892 3.648038 0.108766 -0.261251 7.256200 -3.548873 -0.718445 4.150912 1.147702 -0.338090 -1.773836 -63.447314 -2.573004 -46.308440 -114.441705 -39.887666 0.000002 0.000010 -0.000006 5.697316 -14.088668 0.313901 -0.000001 0.000004 -3.006550 -5.000211 -7.998745 0.000160 -2.357252 54.659921 2.281802 -36.842577 117.316764 33.491802 -0.000000 0.000000 0.000003 3.681582 9.810589 0.234226 -0.000003 -0.000010 3.000001 -5.000225 7.998803 -0.000158 2.726005 -175.981532 1.125112 -179.999991 0.000005 -1.147002 174.625493 -3.326340 -0.529765 0.000003 -0.000000 0.050072 68.706922 6.909042 2.112423 25.456953 -7.355613 0.000000 2.314402 172.944693 -1.013754 -0.000005 -0.000005 -1.076870 -8.079131 0.881383 0.666592 0.000002 0.000001 -0.089586 70.950482 -6.392582 -3.347177 25.458068 7.355619 -0.001667 
54.138393 -16.043610 85.685890 -3.487625 2.067779 -4.015654 -1.000370 0.062100 -0.135401 2.002233 0.112337 -0.259026 3.647298 0.109235 -0.260386 7.264289 -3.549414 -0.720357 4.148455 1.147387 -0.340131 -1.782437 -63.445211 -2.582630 -46.301180 -114.446739 -39.886512 0.000001 0.000012 -0.000007 5.707732 -14.090313 0.315260 -0.000003 0.000004 -3.006550 -5.000211 -7.998746 0.000161 -2.333516 54.663469 2.253496 -36.834920 117.317897 33.493492 0.000002 0.000001 0.000003 3.703598 9.816189 0.232090 -0.000001 -0.000010 3.000000 -5.000223 7.998805 -0.000156 2.726536 -175.978554 1.128411 -179.999991 0.000005 -1.147003 174.626572 -3.328345 -0.529889 0.000003 -0.000000 0.050072 68.707024 6.909047 2.112420 25.456957 -7.355613 -0.000000 2.313469 172.947698 -1.011274 -0.000005 -0.000005 -1.076870 -8.080320 0.880812 0.666595 0.000002 0.000001 -0.089586 70.951397 -6.392795 -3.347161 25.458068 7.355620 -0.001666 
54.129692 -16.047714 85.685501 -3.487939 2.065762 -4.013085 -1.000688 0.062111 -0.134607 2.001584 0.112790 -0.258248 3.646637 0.109694 -0.259607 7.271919 -3.550088 -0.722152 4.146176 1.147031 -0.342020 -1.790145 -63.443414 -2.591271 -46.295504 -114.451089 -39.887635 0.000001 0.000010 -0.000007 5.718975 -14.092340 0.316769 -0.000001 0.000004 -3.006550 -5.000211 -7.998744 0.000160 -2.311378 54.666604 2.227075 -36.827810 117.319195 33.496026 0.000000 0.000001 0.000003 3.725517 9.821857 0.229964 -0.000001 -0.000010 3.000001 -5.000221 7.998803 -0.000158 2.727142 -175.974551 1.131643 -179.999991 0.000005 -1.147002 174.627610 -3.330336 -0.529019 0.000003 -0.000000 0.050072 68.707024 6.909047 2.112420 25.456955 -7.355613 -0.000001 2.312721 172.950690 -1.008975 -0.000005 -0.000005 -1.076870 -8.081370 0.880272 0.666596 0.000002 0.000001 -0.089586 70.952312 -6.393009 -3.347144 25.458068 7.355620 -0.001666 
54.135098 -16.041912 85.681900 -3.488337 2.063965 -4.010680 -1.000971 0.062113 -0.133847 2.001034 0.113231 -0.257583 3.646086 0.110143 -0.258942 7.278959 -3.550916 -0.723803 4.144123 1.146645 -0.343713 -1.796719 -63.442035 -2.598659 -46.289828 -114.455440 -39.889428 0.000001 0.000009 -0.000006 5.731265 -14.094636 0.318433 -0.000004 0.000004 -3.006551 -5.000210 -7.998743 0.000160 -2.291258 54.669381 2.203041 -36.821430 117.320711 33.499660 0.000001 0.000001 0.000002 3.747328 9.827625 0.227849 -0.000002 -0.000010 3.000001 -5.000224 7.998803 -0.000157 2.727841 -175.971559 1.134679 -179.999991 0.000004 -1.147002 174.628526 -3.333334 -0.529246 0.000002 -0.000000 0.050072 68.707024 6.909047 2.112420 25.456955 -7.355615 -0.000000 2.312208 172.953681 -1.006907 -0.000005 -0.000005 -1.076870 -8.082218 0.879769 0.666595 0.000002 0.000001 -0.089586 70.953016 -6.393214 -3.347138 25.458067 7.355620 -0.001667 
54.131191 -16.039707 85.682892 -3.488851 2.062417 -4.008486 -1.001180 0.062103 -0.133124 2.000624 0.113660 -0.257054 3.645666 0.110577 -0.258412 7.285290 -3.551937 -0.725264 4.142356 1.146208 -0.345168 -1.801921 -63.441167 -2.604528 -46.283985 -114.459723 -39.891911 -0.000001 0.000010 -0.000007 5.744825 -14.097500 0.320328 -0.000000 0.000004 -3.006550 -5.000212 -7.998745 0.000160 -2.273592 54.671515 2.181909 -36.815775 117.322446 33.504513 0.000001 -0.000000 0.000003 3.769003 9.833514 0.225749 -0.000002 -0.000010 3.000001 -5.000224 7.998804 -0.000157 2.728672 -175.969565 1.137487 -179.999991 0.000005 -1.147002 174.629332 -3.335324 -0.529387 0.000003 -0.000000 0.050071 68.707024 6.909047 2.112420 25.456957 -7.355614 0.000000 2.311984 172.956687 -1.005119 -0.000005 -0.000005 -1.076870 -8.082827 0.879311 0.666594 0.000002 0.000001 -0.089586 70.953692 -6.393356 -3.347222 25.458068 7.355620 -0.001666 
54.136391 -16.038313 85.684601 -3.489490 2.061157 -4.006530 -1.001310 0.062079 -0.132449 2.000355 0.114074 -0.256685 3.645406 0.110994 -0.258043 7.290780 -3.553183 -0.726520 4.140911 1.145722 -0.346342 -1.805508 -63.440914 -2.608617 -46.279726 -114.463315 -39.897105 0.000002 0.000011 -0.000006 5.759887 -14.100924 0.322456 -0.000003 0.000004 -3.006551 -5.000212 -7.998744 0.000160 -2.258829 54.672994 2.164205 -36.810048 117.325315 33.509683 0.000002 0.000001 0.000003 3.790518 9.839545 0.223663 0.000000 -0.000010 2.999999 -5.000222 7.998802 -0.000157 2.729636 -175.966573 1.140132 -179.999991 0.000004 -1.147001 174.630015 -3.337328 -0.529535 0.000003 -0.000000 0.050072 68.706915 6.909042 2.112423 25.456957 -7.355614 -0.000001 2.312117 172.958681 -1.003703 -0.000005 -0.000004 -1.076870 -8.083165 0.878906 0.666591 0.000002 0.000001 -0.089586 70.954177 -6.393525 -3.347223 25.458067 7.355619 -0.001666 
